PathFileType	4	(X/Y/Z)	C:\Users\WrightLab\Desktop\Jo\P3_9.trc
DataRate	CameraRate	NumFrames	NumMarkers	Units	OrigDataRate	OrigDataStartFrame	OrigNumFrames
100.00	100.00	       14	19	mm	100.00	67	       535
Frame#	Time	Headset_Front			Headset_Back			Headset_Left			Headset_Right			Left_Shoulder			Right_Shoulder			Sternum			C7			Left Elbow			Right Elbow			Left Wrist			Right Wrist			Left ASIS			Right ASIS			S2			Left Knee			Right Knee			Left Ankle			Right Ankle			
		X1	Y1	Z1	X2	Y2	Z2	X3	Y3	Z3	X4	Y4	Z4	X5	Y5	Z5	X6	Y6	Z6	X7	Y7	Z7	X8	Y8	Z8	X9	Y9	Z9	X10	Y10	Z10	X11	Y11	Z11	X12	Y12	Z12	X13	Y13	Z13	X14	Y14	Z14	X15	Y15	Z15	X16	Y16	Z16	X17	Y17	Z17	X18	Y18	Z18	X19	Y19	Z19	

67	0.660				-96.90554	1662.52783	2304.06592	-217.77797	1594.57190	2215.54443				-283.92499	1370.96826	2258.44775	66.92301	1390.25830	2317.67700				-114.56807	1435.39624	2343.51416	-356.58960	1068.94800	2157.96484	153.09076	1052.38184	2371.17090	-333.16608	985.98291	1963.68591	186.20424	863.43689	2248.25830				-95.49589	983.52472	2407.47729							55.16071	496.72086	2218.71045	-182.74315	355.03287	2597.90332	33.96994	160.05983	2260.14771	
68	0.670				-94.30694	1663.17273	2296.03247	-215.80016	1595.14038	2208.01929				-280.92413	1372.10693	2250.33472	69.24577	1390.87683	2308.82349				-112.06651	1436.02112	2335.15259	-354.29816	1070.68652	2148.57495	156.84012	1053.06873	2361.75610	-331.70679	987.92175	1954.53723	189.12418	866.93524	2233.38916				-93.71201	984.21698	2399.93115				-194.35710	464.16318	2219.40259	56.36086	496.23398	2215.40356	-213.11226	294.22852	2509.35864	34.17476	160.10098	2259.77832	
69	0.680				-91.85508	1663.67334	2287.34668	-213.74159	1595.74280	2200.95996				-278.51196	1372.99939	2243.19800	71.88963	1391.32520	2300.55347				-109.28951	1436.89478	2327.71240	-352.37985	1072.12207	2140.59302	160.47635	1054.16968	2352.57446	-330.36380	989.95221	1945.62292	192.81906	866.64545	2224.97876	-180.26003	890.06012	2167.61865	-92.36067	985.14600	2392.79126				-190.86333	466.04324	2200.23438	57.17180	496.22745	2213.81787	-209.32854	295.48080	2488.24658	34.33467	160.27371	2259.43433	
70	0.690				-89.36755	1664.38293	2278.82397	-211.36235	1595.69666	2192.08130				-276.77487	1373.80835	2235.89795	74.43921	1391.66455	2291.70313				-106.95473	1437.74670	2319.80835	-350.87744	1073.87061	2131.17896	164.37396	1054.49731	2342.25244	-328.76691	991.80389	1936.92859	195.30916	868.89276	2212.44604	-178.64442	890.50354	2160.17554	-91.19601	985.84332	2385.88892				-185.81770	466.54083	2181.84717	57.79143	495.49521	2208.97949	-203.98540	298.47165	2470.21777	34.64446	160.55289	2258.77197	
71	0.700				-87.26727	1665.17432	2270.54443	-209.29005	1596.25366	2184.24023				-273.69284	1374.18628	2227.89844	76.29327	1392.42505	2283.57617				-104.85425	1438.52136	2312.46021	-348.72726	1075.56519	2123.38550	168.51942	1054.90259	2332.32324	-327.62762	993.58099	1928.02930	198.97923	869.49323	2203.57813	-177.11224	892.20599	2153.32471	-90.04062	986.36951	2378.59521				-182.00342	469.76367	2161.05103	58.61930	495.10788	2206.71191	-199.93205	297.23029	2448.48999	34.72115	160.67938	2258.49170	
72	0.710				-84.93643	1665.63550	2261.96216	-207.50192	1596.77966	2176.65796				-272.01849	1375.07019	2221.54346	78.32725	1392.57703	2275.97144				-102.49370	1439.10400	2304.84155	-347.45905	1077.25525	2114.53979	171.56418	1055.27258	2322.79736	-326.59210	995.24329	1919.85828	202.02238	871.25391	2190.70459	-175.33748	894.02484	2146.13867	-88.56176	986.89154	2371.40771				-177.56035	471.24368	2143.52319	59.30987	494.71140	2203.15454	-196.16217	295.81805	2427.58252	35.10786	161.07169	2257.53052	
73	0.720				-82.87814	1666.32959	2253.43164	-205.37091	1596.87488	2168.15527				-269.96515	1375.89783	2213.74878	80.47311	1393.41553	2267.43872				-100.30650	1439.83936	2296.74585	-346.02505	1078.83142	2106.72437	175.16145	1055.68018	2313.28271	-325.42099	997.02557	1910.91895	205.51839	872.20398	2183.29834	-173.67871	895.58905	2137.24902	-87.25241	987.52148	2363.84937				-174.09825	476.47723	2125.31689	60.40068	493.91855	2201.20337	-192.56181	290.62726	2403.48999	35.28200	161.20882	2257.49390	
74	0.730				-80.83211	1667.19080	2245.01831	-203.55910	1597.37720	2159.97583				-267.94565	1376.93140	2207.27734	82.47958	1393.34888	2259.41895				-98.26939	1440.27319	2289.53223	-344.20615	1080.46118	2098.34961	177.95685	1056.46387	2303.90845	-324.26700	998.37494	1902.34143	208.11058	872.89789	2170.12451	-171.78116	896.72546	2131.30493	-85.92615	987.93829	2356.72607				-169.18033	478.35355	2107.25903	60.60624	493.84476	2198.80420	-187.82294	288.31741	2381.53516	35.28868	161.13623	2257.44873	
75	0.740				-78.93153	1667.60559	2236.16138	-201.92996	1597.84729	2152.07520				-265.75757	1377.17139	2199.21338	84.21032	1393.56067	2251.33057				-96.07865	1440.62756	2281.39331	-342.77557	1082.20837	2090.14551	181.78067	1055.95435	2292.66284	-323.52100	999.74817	1893.68518	210.71901	874.30225	2160.76392	-170.11504	897.77753	2126.96436	-84.75747	988.36029	2350.01270				-165.50146	482.79443	2089.64697	61.30773	493.55493	2196.14380	-144.48083	369.06229	2457.01221	35.35640	161.24355	2257.46460	
76	0.750				-76.95311	1668.08325	2227.49365	-200.35033	1597.87695	2144.33521				-264.00720	1377.63086	2192.37305	86.24269	1393.92261	2243.16992				-94.16220	1441.26160	2274.18066	-341.92783	1083.39880	2081.60718	184.50597	1056.66089	2284.49097	-322.72049	1000.98206	1885.40125	213.83139	874.78717	2150.16357	-168.68837	899.94421	2116.54834	-83.72852	989.26331	2343.20068				-161.36403	485.73532	2072.53784	62.43890	493.72827	2194.27148	-179.83781	278.02206	2335.03345	35.41631	161.30701	2257.46118	
77	0.760				-74.61884	1668.23877	2218.38940	-198.54720	1598.35974	2135.78442				-261.52155	1378.81116	2185.00415	87.96441	1394.14526	2235.19971				-92.23893	1441.27161	2266.06128	-340.50500	1084.84155	2072.63208	186.57877	1056.74524	2274.22510	-321.68344	1002.31329	1877.07410	215.80690	877.54834	2137.16919	-167.43008	901.14801	2109.05518	-82.46661	989.87067	2336.01709				-156.54581	488.00189	2057.27515	62.78716	493.26120	2192.18726	-175.75024	271.82684	2311.66919	35.52270	161.45869	2257.21899	
78	0.770				-73.03367	1668.59155	2209.78442	-196.45576	1597.86255	2126.99414				-260.21854	1379.01563	2177.54126	89.77242	1393.87476	2227.19775				-90.19299	1441.64014	2258.76709	-339.53784	1086.38977	2064.45508	189.86534	1056.56824	2265.13989	-320.78552	1003.54535	1868.60974	218.22681	877.62817	2127.75171	-166.24792	901.87329	2104.54150	-81.12032	990.24286	2328.89014				-153.30757	492.59964	2041.03394	63.40565	493.25131	2190.87817	-172.61531	264.98389	2286.69458	35.55281	161.50719	2257.22656	
79	0.780				-71.24094	1668.65344	2201.42114	-194.99696	1597.76843	2118.96680				-258.57513	1379.97876	2171.22827	91.30405	1393.97681	2219.05762				-88.56593	1441.84485	2251.00488	-338.80115	1087.64136	2056.47070	191.59706	1057.30286	2256.63843	-319.99994	1004.80536	1860.63513	220.75159	878.74011	2118.64233	-165.20963	903.21698	2094.54419	-79.78002	990.49969	2321.64526				-150.40646	495.33624	2024.36023	64.15627	492.73846	2186.83130	-170.01797	258.51617	2263.12720	35.67091	161.72638	2256.87769	
80	0.790				-69.72779	1669.20691	2193.00342	-193.71701	1597.90955	2111.71021				-256.93237	1380.31873	2164.62915	92.79576	1394.08374	2211.34912				-86.67335	1441.95874	2243.23877	-338.20004	1089.00452	2048.31348	193.99796	1056.97876	2246.82935	-319.48349	1006.07458	1852.50293	222.82095	879.33368	2106.48560	-164.23712	904.10193	2087.50952	-78.36015	990.16272	2313.72339				-147.72305	498.32263	2010.35303	64.59139	492.07095	2184.79688	-164.84810	248.77222	2235.36670	35.64410	161.73947	2256.90259	
